<svg xmlns="http://www.w3.org/2000/svg" version="1.1" xmlns:xlink="http://www.w3.org/1999/xlink" width="512" height="512" x="0" y="0" viewBox="0 0 32 32" style="enable-background:new 0 0 512 512" xml:space="preserve" fill-rule="evenodd" class=""><g><g fill="#30a2ff"><circle cx="16.016" cy="15.952" r="3" fill="#30a2ff" opacity="1" data-original="#30a2ff" class=""></circle><path d="M10.538 6.464a14.647 14.647 0 0 0-2.539-.228c-2.405.013-4.164.815-4.973 2.216-.809 1.402-.624 3.326.567 5.415.386.677.879 1.378 1.467 2.085a14.653 14.653 0 0 0-1.467 2.086c-1.191 2.088-1.376 4.013-.567 5.414.809 1.402 2.568 2.204 4.973 2.217.779.004 1.632-.072 2.539-.228.319.863.679 1.64 1.073 2.313 1.213 2.076 2.787 3.198 4.405 3.198 1.619 0 3.193-1.122 4.406-3.198.394-.673.754-1.45 1.073-2.313.907.156 1.76.232 2.539.228 2.405-.013 4.164-.815 4.973-2.217.809-1.401.624-3.326-.567-5.414a14.653 14.653 0 0 0-1.467-2.086 14.647 14.647 0 0 0 1.467-2.085c1.191-2.089 1.376-4.013.567-5.415-.809-1.401-2.568-2.203-4.973-2.216a14.647 14.647 0 0 0-2.539.228 14.659 14.659 0 0 0-1.073-2.314C19.209 2.075 17.635.952 16.016.952c-1.618 0-3.192 1.123-4.405 3.198a14.659 14.659 0 0 0-1.073 2.314zm5.478 17.304a27.3 27.3 0 0 1-3.511 1.233c.251.642.53 1.227.832 1.744.774 1.324 1.647 2.207 2.679 2.207s1.906-.883 2.68-2.207c.302-.517.58-1.102.832-1.744a27.365 27.365 0 0 1-3.512-1.233zm9.592-6.332a27.403 27.403 0 0 1-2.823 2.424 27.387 27.387 0 0 1-.688 3.657 12.44 12.44 0 0 0 1.927.152c1.533-.008 2.735-.323 3.251-1.217.516-.893.187-2.092-.572-3.424a12.423 12.423 0 0 0-1.095-1.592zm-19.183 0a12.423 12.423 0 0 0-1.095 1.592c-.759 1.332-1.088 2.531-.572 3.424.516.894 1.718 1.209 3.251 1.217a12.44 12.44 0 0 0 1.927-.152 27.228 27.228 0 0 1-.688-3.657 27.403 27.403 0 0 1-2.823-2.424zm5.078 3.969c.111.59.24 1.157.385 1.698a23.37 23.37 0 0 0 1.663-.515 32.333 32.333 0 0 1-2.048-1.183zm9.027 0c-.331.208-.669.411-1.014.61-.344.198-.689.389-1.034.573.567.198 1.122.37 1.663.515a22.97 22.97 0 0 0 .385-1.698zm-4.514-11.083c.827.384 1.664.817 2.5 1.3.837.483 1.631.991 2.376 1.515.082.908.124 1.85.124 2.815 0 .966-.042 1.908-.124 2.815a30.888 30.888 0 0 1-2.376 1.515c-.836.483-1.673.917-2.5 1.3a31.65 31.65 0 0 1-4.875-2.815 31.316 31.316 0 0 1-.125-2.815c0-.965.043-1.907.125-2.815a31.687 31.687 0 0 1 4.875-2.815zm6.98 4.448a35.517 35.517 0 0 1 0 2.364 22.72 22.72 0 0 0 1.277-1.182 22.72 22.72 0 0 0-1.277-1.182zm-13.959 0a23.1 23.1 0 0 0-1.278 1.182c.396.396.823.792 1.278 1.182a32.948 32.948 0 0 1 0-2.364zm.899-6.383a12.558 12.558 0 0 0-1.927-.151c-1.533.008-2.735.323-3.251 1.216-.516.894-.187 2.092.572 3.424a12.43 12.43 0 0 0 1.095 1.593 27.176 27.176 0 0 1 2.823-2.424c.157-1.301.391-2.529.688-3.658zm15.672 6.082a12.43 12.43 0 0 0 1.095-1.593c.759-1.332 1.088-2.53.572-3.424-.516-.893-1.718-1.208-3.251-1.216a12.558 12.558 0 0 0-1.927.151c.297 1.129.53 2.357.688 3.658a27.281 27.281 0 0 1 2.823 2.424zm-13.72-5.667a23.058 23.058 0 0 0-.385 1.697 34.358 34.358 0 0 1 2.048-1.182 22.528 22.528 0 0 0-1.663-.515zm8.257 0c-.541.144-1.097.316-1.663.515a32.174 32.174 0 0 1 2.048 1.182 22.942 22.942 0 0 0-.385-1.697zm-.617-1.898a12.58 12.58 0 0 0-.832-1.744c-.774-1.324-1.648-2.208-2.68-2.208s-1.905.884-2.679 2.208a12.468 12.468 0 0 0-.832 1.744 27.3 27.3 0 0 1 3.511 1.233 27.365 27.365 0 0 1 3.512-1.233z" fill="#30a2ff" opacity="1" data-original="#30a2ff" class=""></path></g></g></svg>