<svg xmlns="http://www.w3.org/2000/svg" version="1.1" xmlns:xlink="http://www.w3.org/1999/xlink" width="512" height="512" x="0" y="0" viewBox="0 0 32 32" style="enable-background:new 0 0 512 512" xml:space="preserve" class=""><g><path d="M14 22a1 1 0 0 1 0-2c1.439 0 2-.561 2-2v-7a1 1 0 0 1 2 0v7a3.641 3.641 0 0 1-4 4z" fill="#000000" opacity="1" data-original="#000000" class=""></path><path d="M16 29C6.4 29 3 25.6 3 16S6.4 3 16 3s13 3.4 13 13-3.4 13-13 13zm0-24C7.57 5 5 7.57 5 16s2.57 11 11 11 11-2.57 11-11S24.43 5 16 5z" fill="#000000" opacity="1" data-original="#000000" class=""></path></g></svg>