<svg xmlns="http://www.w3.org/2000/svg" version="1.1" xmlns:xlink="http://www.w3.org/1999/xlink" width="512" height="512" x="0" y="0" viewBox="0 0 96 96" style="enable-background:new 0 0 512 512" xml:space="preserve" class=""><g><g fill="#333" data-name="34 Cloud Download"><path d="M45 43.74v15.75l-3.89-3.88-4.24 4.24L48 70.98l11.13-11.13-4.24-4.24L51 59.49V43.74z" fill="#333333" opacity="1" data-original="#333333" class=""></path><path d="M70.84 45.31a23 23 0 0 0-44.93-3.74A15 15 0 0 0 30 71h8v-6h-8a9 9 0 0 1-1.21-17.91l2.13-.29.41-2.11A17 17 0 0 1 65 48v3h3a7 7 0 0 1 0 14H58v6h10a13 13 0 0 0 2.84-25.69z" fill="#333333" opacity="1" data-original="#333333" class=""></path></g></g></svg>